<svg width="800" height="450" viewBox="0 0 800 450" fill="none" xmlns="http://www.w3.org/2000/svg">
<rect width="800" height="450" rx="20" fill="white"/>
<rect x="1" y="1" width="798" height="448" rx="19" stroke="#E2E8F0" stroke-width="2"/>
<!-- Sidebar -->
<rect x="0" y="0" width="200" height="450" rx="20" fill="#F8FAFC"/>
<rect x="20" y="30" width="120" height="20" rx="4" fill="#E2E8F0"/>
<rect x="20" y="80" width="160" height="40" rx="8" fill="#E2E8F0"/>
<rect x="20" y="130" width="160" height="40" rx="8" fill="#FFFFFF"/>
<rect x="20" y="180" width="160" height="40" rx="8" fill="#E2E8F0"/>
<!-- Main Content -->
<rect x="240" y="30" width="520" height="80" rx="12" fill="#F1F5F9"/>
<rect x="240" y="140" width="240" height="120" rx="12" fill="#F1F5F9"/>
<rect x="520" y="140" width="240" height="120" rx="12" fill="#F1F5F9"/>
<!-- Chat bubbles -->
<rect x="240" y="300" width="300" height="60" rx="12" fill="#7918bf"/>
<rect x="460" y="380" width="300" height="40" rx="12" fill="#E2E8F0"/>
<!-- Accents -->
<circle cx="270" cy="170" r="20" fill="#9332d1"/>
<circle cx="550" cy="170" r="20" fill="#10B981"/>
</svg>
